HIERARCHY
ROOT Hips
{
	OFFSET -1.283950 86.130447 4.402737
	CHANNELS 6 Xposition Yposition Zposition Zrotation Yrotation Xrotation 
	JOINT Spine
	{
		OFFSET 0.000000 8.814246 -2.080107
		CHANNELS 3 Zrotation Yrotation Xrotation
		JOINT Spine1
		{
			OFFSET 0.000000 8.844141 -0.000000
			CHANNELS 3 Zrotation Yrotation Xrotation
			JOINT Spine2
			{
				OFFSET 0.000000 11.682268 -0.000000
				CHANNELS 3 Zrotation Yrotation Xrotation
				JOINT Spine3
				{
					OFFSET -0.000000 11.746700 -0.000000
					CHANNELS 3 Zrotation Yrotation Xrotation
					JOINT Neck
					{
						OFFSET -0.000000 17.658264 0.000000
						CHANNELS 3 Zrotation Yrotation Xrotation
						JOINT Neck1
						{
							OFFSET -0.000000 5.101515 -0.000000
							CHANNELS 3 Zrotation Yrotation Xrotation
							JOINT Head
							{
								OFFSET 0.000000 5.101515 -0.000000
								CHANNELS 3 Zrotation Yrotation Xrotation
								JOINT HeadEnd
								{
									OFFSET -0.000000 11.655085 0.000000
									CHANNELS 3 Zrotation Yrotation Xrotation
									End Site
									{
										OFFSET 0.000000 0.000000 0.000000
									}
								}
							}
						}
					}
					JOINT RightShoulder
					{
						OFFSET -2.625389 11.175210 -0.000000
						CHANNELS 3 Zrotation Yrotation Xrotation
						JOINT RightArm
						{
							OFFSET 0.000000 10.434715 0.000000
							CHANNELS 3 Zrotation Yrotation Xrotation
							JOINT RightForeArm
							{
								OFFSET 0.000000 29.628420 0.000000
								CHANNELS 3 Zrotation Yrotation Xrotation
								JOINT RightHand
								{
									OFFSET 0.000000 22.857611 0.000000
									CHANNELS 3 Zrotation Yrotation Xrotation
									JOINT RightHandThumb1
									{
										OFFSET -2.867323 3.959563 2.944291
										CHANNELS 3 Zrotation Yrotation Xrotation
										JOINT RightHandThumb2
										{
											OFFSET 0.000000 3.350399 0.000000
											CHANNELS 3 Zrotation Yrotation Xrotation
											JOINT RightHandThumb3
											{
												OFFSET 0.000000 3.756509 0.000000
												CHANNELS 3 Zrotation Yrotation Xrotation
												JOINT RightHandThumb4
												{
													OFFSET 0.000000 3.147345 -0.000000
													CHANNELS 3 Zrotation Yrotation Xrotation
													End Site
													{
														OFFSET 0.000000 0.000000 0.000000
													}
												}
											}
										}
									}
									JOINT RightHandIndex1
									{
										OFFSET -0.086752 10.030893 2.345280
										CHANNELS 3 Zrotation Yrotation Xrotation
										JOINT RightHandIndex2
										{
											OFFSET -0.000000 4.061090 -0.000000
											CHANNELS 3 Zrotation Yrotation Xrotation
											JOINT RightHandIndex3
											{
												OFFSET -0.000000 3.248873 -0.000000
												CHANNELS 3 Zrotation Yrotation Xrotation
												JOINT RightHandIndex4
												{
													OFFSET 0.000000 2.639709 -0.000000
													CHANNELS 3 Zrotation Yrotation Xrotation
													End Site
													{
														OFFSET 0.000000 0.000000 0.000000
													}
												}
											}
										}
									}
									JOINT RightHandMiddle1
									{
										OFFSET 0.104102 9.502952 0.006768
										CHANNELS 3 Zrotation Yrotation Xrotation
										JOINT RightHandMiddle2
										{
											OFFSET -0.000000 4.568727 -0.000000
											CHANNELS 3 Zrotation Yrotation Xrotation
											JOINT RightHandMiddle3
											{
												OFFSET -0.000000 3.654981 0.000000
												CHANNELS 3 Zrotation Yrotation Xrotation
												JOINT RightHandMiddle4
												{
													OFFSET 0.000000 2.741236 -0.000000
													CHANNELS 3 Zrotation Yrotation Xrotation
													End Site
													{
														OFFSET 0.000000 0.000000 0.000000
													}
												}
											}
										}
									}
									JOINT RightHandRing1
									{
										OFFSET 0.086752 8.921708 -2.267442
										CHANNELS 3 Zrotation Yrotation Xrotation
										JOINT RightHandRing2
										{
											OFFSET 0.000000 4.061090 0.000000
											CHANNELS 3 Zrotation Yrotation Xrotation
											JOINT RightHandRing3
											{
												OFFSET 0.000000 3.654981 0.000000
												CHANNELS 3 Zrotation Yrotation Xrotation
												JOINT RightHandRing4
												{
													OFFSET 0.000000 2.741236 0.000000
													CHANNELS 3 Zrotation Yrotation Xrotation
													End Site
													{
														OFFSET 0.000000 0.000000 0.000000
													}
												}
											}
										}
									}
									JOINT RightHandPinky1
									{
										OFFSET -0.173504 7.976997 -4.467199
										CHANNELS 3 Zrotation Yrotation Xrotation
										JOINT RightHandPinky2
										{
											OFFSET -0.000000 3.350399 -0.000000
											CHANNELS 3 Zrotation Yrotation Xrotation
											JOINT RightHandPinky3
											{
												OFFSET 0.000000 2.842763 0.000000
												CHANNELS 3 Zrotation Yrotation Xrotation
												JOINT RightHandPinky4
												{
													OFFSET -0.000000 2.639709 0.000000
													CHANNELS 3 Zrotation Yrotation Xrotation
													End Site
													{
														OFFSET 0.000000 0.000000 0.000000
													}
												}
											}
										}
									}
									JOINT RightForeArmEnd
									{
										OFFSET 0.000000 0.000000 0.000000
										CHANNELS 3 Zrotation Yrotation Xrotation
										End Site
										{
											OFFSET 0.000000 0.000000 0.000000
										}
									}
								}
								JOINT RightArmEnd
								{
									OFFSET 0.000000 0.000000 0.000000
									CHANNELS 3 Zrotation Yrotation Xrotation
									End Site
									{
										OFFSET 0.000000 0.000000 0.000000
									}
								}
							}
						}
					}
					JOINT LeftShoulder
					{
						OFFSET 2.625389 11.175210 0.000000
						CHANNELS 3 Zrotation Yrotation Xrotation
						JOINT LeftArm
						{
							OFFSET 0.000000 10.813635 0.000000
							CHANNELS 3 Zrotation Yrotation Xrotation
							JOINT LeftForeArm
							{
								OFFSET -0.000000 28.724781 0.000000
								CHANNELS 3 Zrotation Yrotation Xrotation
								JOINT LeftHand
								{
									OFFSET 0.644384 25.716167 -0.328871
									CHANNELS 3 Zrotation Yrotation Xrotation
									JOINT LeftHandThumb1
									{
										OFFSET 2.867323 3.959563 2.944291
										CHANNELS 3 Zrotation Yrotation Xrotation
										JOINT LeftHandThumb2
										{
											OFFSET -0.000000 3.350399 0.000000
											CHANNELS 3 Zrotation Yrotation Xrotation
											JOINT LeftHandThumb3
											{
												OFFSET 0.000000 3.756509 0.000000
												CHANNELS 3 Zrotation Yrotation Xrotation
												JOINT LeftHandThumb4
												{
													OFFSET -0.000000 3.100000 -0.000000
													CHANNELS 3 Zrotation Yrotation Xrotation
													End Site
													{
														OFFSET 0.000000 0.000000 0.000000
													}
												}
											}
										}
									}
									JOINT LeftHandIndex1
									{
										OFFSET 0.086752 10.030893 2.345280
										CHANNELS 3 Zrotation Yrotation Xrotation
										JOINT LeftHandIndex2
										{
											OFFSET 0.000000 4.061090 -0.000000
											CHANNELS 3 Zrotation Yrotation Xrotation
											JOINT LeftHandIndex3
											{
												OFFSET -0.000000 3.248873 0.000000
												CHANNELS 3 Zrotation Yrotation Xrotation
												JOINT LeftHandIndex4
												{
													OFFSET 0.000000 2.639709 0.000000
													CHANNELS 3 Zrotation Yrotation Xrotation
													End Site
													{
														OFFSET 0.000000 0.000000 0.000000
													}
												}
											}
										}
									}
									JOINT LeftHandMiddle1
									{
										OFFSET -0.104102 9.502952 0.006768
										CHANNELS 3 Zrotation Yrotation Xrotation
										JOINT LeftHandMiddle2
										{
											OFFSET 0.000000 4.568727 -0.000000
											CHANNELS 3 Zrotation Yrotation Xrotation
											JOINT LeftHandMiddle3
											{
												OFFSET 0.000000 3.654981 0.000000
												CHANNELS 3 Zrotation Yrotation Xrotation
												JOINT LeftHandMiddle4
												{
													OFFSET 0.000000 2.741236 -0.000000
													CHANNELS 3 Zrotation Yrotation Xrotation
													End Site
													{
														OFFSET 0.000000 0.000000 0.000000
													}
												}
											}
										}
									}
									JOINT LeftHandRing1
									{
										OFFSET -0.086752 8.921708 -2.267442
										CHANNELS 3 Zrotation Yrotation Xrotation
										JOINT LeftHandRing2
										{
											OFFSET 0.000000 4.061090 0.000000
											CHANNELS 3 Zrotation Yrotation Xrotation
											JOINT LeftHandRing3
											{
												OFFSET -0.000000 3.654981 -0.000000
												CHANNELS 3 Zrotation Yrotation Xrotation
												JOINT LeftHandRing4
												{
													OFFSET 0.000000 2.741236 0.000000
													CHANNELS 3 Zrotation Yrotation Xrotation
													End Site
													{
														OFFSET 0.000000 0.000000 0.000000
													}
												}
											}
										}
									}
									JOINT LeftHandPinky1
									{
										OFFSET 0.173504 7.976997 -4.467199
										CHANNELS 3 Zrotation Yrotation Xrotation
										JOINT LeftHandPinky2
										{
											OFFSET -0.000000 3.350399 -0.000000
											CHANNELS 3 Zrotation Yrotation Xrotation
											JOINT LeftHandPinky3
											{
												OFFSET 0.000000 2.842763 0.000000
												CHANNELS 3 Zrotation Yrotation Xrotation
												JOINT LeftHandPinky4
												{
													OFFSET -0.000000 2.639709 0.000000
													CHANNELS 3 Zrotation Yrotation Xrotation
													End Site
													{
														OFFSET 0.000000 0.000000 0.000000
													}
												}
											}
										}
									}
									JOINT LeftForeArmEnd
									{
										OFFSET 0.000000 0.000000 0.000000
										CHANNELS 3 Zrotation Yrotation Xrotation
										End Site
										{
											OFFSET 0.000000 0.000000 0.000000
										}
									}
								}
								JOINT LeftArmEnd
								{
									OFFSET 0.000000 0.000000 0.000000
									CHANNELS 3 Zrotation Yrotation Xrotation
									End Site
									{
										OFFSET 0.000000 0.000000 0.000000
									}
								}
							}
						}
					}
				}
			}
		}
	}
	JOINT RightUpLeg
	{
		OFFSET -11.289943 0.000000 -0.000000
		CHANNELS 3 Zrotation Yrotation Xrotation
		JOINT RightLeg
		{
			OFFSET -0.000000 -38.200325 0.000000
			CHANNELS 3 Zrotation Yrotation Xrotation
			JOINT RightFoot
			{
				OFFSET 0.000000 -39.900856 0.000000
				CHANNELS 3 Zrotation Yrotation Xrotation
				JOINT RightToeBase
				{
					OFFSET -0.000000 0.000000 15.261641
					CHANNELS 3 Zrotation Yrotation Xrotation
					JOINT RightToeBaseEnd
					{
						OFFSET -0.000000 -0.000000 7.370709
						CHANNELS 3 Zrotation Yrotation Xrotation
						End Site
						{
							OFFSET 0.000000 0.000000 0.000000
						}
					}
				}
				JOINT RightLegEnd
				{
					OFFSET 0.000000 0.000000 0.000000
					CHANNELS 3 Zrotation Yrotation Xrotation
					End Site
					{
						OFFSET 0.000000 0.000000 0.000000
					}
				}
			}
			JOINT RightUpLegEnd
			{
				OFFSET 0.000000 0.000000 0.000000
				CHANNELS 3 Zrotation Yrotation Xrotation
				End Site
				{
					OFFSET 0.000000 0.000000 0.000000
				}
			}
		}
	}
	JOINT LeftUpLeg
	{
		OFFSET 11.315661 0.000000 -0.000000
		CHANNELS 3 Zrotation Yrotation Xrotation
		JOINT LeftLeg
		{
			OFFSET -0.000000 -38.200325 -0.000000
			CHANNELS 3 Zrotation Yrotation Xrotation
			JOINT LeftFoot
			{
				OFFSET -0.000000 -39.900856 0.000000
				CHANNELS 3 Zrotation Yrotation Xrotation
				JOINT LeftToeBase
				{
					OFFSET -0.000000 -0.000000 15.261641
					CHANNELS 3 Zrotation Yrotation Xrotation
					JOINT LeftToeBaseEnd
					{
						OFFSET 0.000000 0.000000 7.539996
						CHANNELS 3 Zrotation Yrotation Xrotation
						End Site
						{
							OFFSET 0.000000 0.000000 0.000000
						}
					}
				}
				JOINT LeftLegEnd
				{
					OFFSET 0.000000 0.000000 0.000000
					CHANNELS 3 Zrotation Yrotation Xrotation
					End Site
					{
						OFFSET 0.000000 0.000000 0.000000
					}
				}
			}
			JOINT LeftUpLegEnd
			{
				OFFSET 0.000000 0.000000 0.000000
				CHANNELS 3 Zrotation Yrotation Xrotation
				End Site
				{
					OFFSET 0.000000 0.000000 0.000000
				}
			}
		}
	}
}
MOTION
Frames: 4
Frame Time: 0.016667
-1.283950 86.130447 4.402737 -0.177820 -0.018285 -5.871114 5.644106 -2.364708 9.149211 -16.813772 2.160879 -13.247311 20.649025 -10.503840 14.921625 -4.436784 0.296262 -2.015940 9.638379 0.307554 12.890833 -3.510236 1.538701 -6.196025 -0.783602 3.939173 -25.926485 0.000000 0.000000 0.000000 97.522423 -0.412318 2.751606 54.717907 -25.816969 1.439071 2.925858 23.691034 36.805164 -1.807411 14.680236 -12.236598 10.039282 -1.787270 40.137463 0.000000 0.000000 -24.480000 0.000000 0.000000 -16.999998 0.000000 0.000000 0.000000 13.497683 -0.000000 -8.771895 9.448377 0.000000 0.000000 9.448377 0.000000 0.000000 0.000000 0.000000 0.000000 14.365191 0.000000 -10.246247 10.055632 0.000000 0.000000 10.055632 0.000000 0.000000 0.000000 0.000000 0.000000 16.737593 0.000000 -10.356400 11.716313 0.000000 0.000000 11.716313 0.000000 0.000000 0.000000 0.000000 0.000000 18.214836 -0.000000 -12.327996 12.750386 0.000000 0.000000 12.750386 0.000000 0.000000 0.000000 0.000000 0.000000 0.000000 0.000000 0.000000 0.000000 0.000000 0.000000 -95.353333 0.265445 2.584563 -70.386826 28.593941 -16.100828 -0.795896 -2.188268 45.774689 1.017731 -31.256498 -22.002388 -9.142712 1.696614 40.542110 0.000000 0.000000 -22.320000 0.000000 0.000000 -15.500000 0.000000 0.000000 0.000000 -13.135857 0.000000 -16.282602 -9.195099 0.000000 0.000000 -9.195099 0.000000 0.000000 0.000000 0.000000 0.000000 -14.049773 0.000000 -17.082157 -9.834840 0.000000 0.000000 -9.834840 0.000000 0.000000 0.000000 0.000000 0.000000 -16.576084 -0.000000 -15.610021 -11.603259 0.000000 0.000000 -11.603259 0.000000 0.000000 0.000000 0.000000 0.000000 -17.988934 0.000000 -14.639668 -12.592255 0.000000 0.000000 -12.592255 0.000000 0.000000 0.000000 0.000000 0.000000 0.000000 0.000000 0.000000 0.000000 0.000000 0.000000 -7.309754 -8.435361 11.193858 -0.286519 -1.371390 11.802217 3.527428 -13.793236 12.363274 -0.776360 -0.448002 -27.227180 0.000000 0.000000 0.000000 0.000000 0.000000 0.000000 0.000000 0.000000 0.000000 10.946157 2.866670 2.627681 0.300106 1.200138 14.244995 -4.293725 -1.489429 15.633844 0.148587 -0.401520 -28.297281 0.000000 0.000000 0.000000 0.000000 0.000000 0.000000 0.000000 0.000000 0.000000 
-0.853764 86.266006 4.824716 -1.240936 -0.173069 -10.544823 2.653615 -1.087332 6.844713 -5.098523 0.693583 -0.498783 10.819192 -6.318978 12.180785 -1.579975 -0.208953 -1.489735 9.062711 -1.239653 9.967978 -1.636602 -0.075226 -6.315700 1.062313 2.414591 -23.001842 0.000000 0.000000 0.000000 97.182091 -0.626880 2.936490 57.883137 -24.263323 -0.394285 1.810858 21.375694 36.619442 0.243062 14.840252 -10.483006 10.001993 -1.761064 40.179062 0.000011 0.000040 -24.561260 0.000007 0.000036 -17.110596 -0.000009 0.000003 -0.000022 14.835793 0.167695 -7.977036 10.191874 -0.079266 0.087497 10.140767 -0.047509 0.055220 -0.000008 -0.000002 -0.000025 15.564646 0.047976 -9.749122 10.453284 -0.027400 -0.008191 10.574720 0.001477 -0.011380 0.000019 0.000047 0.000003 17.620216 -0.102518 -10.419724 11.763533 0.037191 0.055655 11.684361 -0.007510 0.044650 0.000018 -0.000709 0.000012 18.729809 -0.163386 -13.040076 12.413763 0.104516 0.311868 12.265668 0.019610 0.203455 -0.000432 -0.000014 0.000014 0.000000 0.000000 0.000000 0.000000 0.000000 0.000000 -94.686241 1.053781 1.714523 -66.775261 35.046478 -11.463234 -3.134034 -10.809180 46.264664 -2.093794 -27.151743 -18.446281 -8.817562 1.628839 40.770344 -0.000009 0.000028 -21.614473 0.000075 -0.000036 -14.862838 0.000438 -0.000002 0.001594 -13.940789 0.181873 -16.886850 -10.204707 -0.080402 -0.183116 -10.277115 -0.048379 -0.140860 -0.000003 -0.000023 -0.000005 -14.595186 0.060696 -16.633919 -10.801290 -0.046117 -0.030710 -10.607489 -0.012326 -0.017453 -0.000448 -0.000062 0.000036 -16.947292 -0.018877 -14.587127 -12.356701 0.081317 -0.046329 -12.321140 0.016185 -0.025981 -0.000636 0.000003 0.000006 -18.271645 -0.119519 -12.999090 -13.410706 0.115604 -0.223456 -13.328832 0.004250 -0.185615 -0.000260 -0.000006 -0.000030 0.000000 0.000000 0.000000 0.000000 0.000000 0.000000 -6.988283 -6.856909 15.728463 -0.217894 -1.091794 11.865529 4.244956 -13.251029 13.868484 -0.887020 -0.006410 -27.701715 0.000000 0.000000 0.000000 0.000000 0.000000 0.000000 0.000000 0.000000 0.000000 11.624990 1.065811 8.202529 0.357423 1.109710 14.157837 -3.124098 -0.309715 16.393631 0.129630 -0.080879 -27.392683 0.000000 0.000000 0.000000 0.000000 0.000000 0.000000 0.000000 0.000000 0.000000 
-0.530439 86.313744 5.026548 -1.043759 0.081488 -10.874992 2.423255 -1.056664 6.964812 -4.770167 0.642404 -0.578831 10.283276 -6.184235 12.242181 -1.452620 -0.287559 -1.419690 9.302468 -1.319557 10.120360 -1.649623 -0.105848 -6.230309 1.066439 2.443721 -23.109844 0.000000 0.000000 0.000000 97.243622 -0.650623 2.970128 58.344730 -25.580023 -0.655944 1.840121 21.119425 35.567566 0.910869 14.700038 -10.814935 10.008334 -1.765279 40.171719 0.000007 0.000049 -24.588242 0.000009 0.000032 -17.118946 0.000006 0.000007 -0.000034 14.871764 0.142979 -8.303253 10.334037 -0.075932 0.094134 10.303432 -0.047030 0.059149 0.000002 0.000010 -0.000022 15.661493 0.037068 -10.011855 10.584414 -0.025495 -0.006462 10.676292 0.001970 -0.009054 0.000024 0.000033 -0.000003 17.703259 -0.088805 -10.588159 11.835436 0.031754 0.048408 11.769202 -0.008651 0.040556 0.000012 -0.000656 0.000003 18.888933 -0.124853 -13.112623 12.459499 0.091039 0.300500 12.301374 0.013573 0.192268 -0.000428 -0.000006 0.000011 0.000000 0.000000 0.000000 0.000000 0.000000 0.000000 -94.733139 1.007712 1.849790 -66.588036 35.132843 -10.848368 -3.038274 -10.776345 46.127880 -2.316463 -26.781931 -18.292530 -8.810089 1.625619 40.758484 0.000000 0.000033 -21.645746 0.000062 -0.000029 -14.898292 0.000367 0.000004 0.001442 -14.087905 0.164109 -17.016291 -10.337535 -0.078602 -0.222948 -10.438265 -0.047603 -0.174632 0.000006 -0.000230 -0.000006 -14.741064 0.052449 -16.761412 -10.950771 -0.044291 -0.044962 -10.741253 -0.013166 -0.029380 -0.000247 -0.000066 0.000046 -17.044964 -0.004983 -14.692592 -12.458498 0.077870 -0.029575 -12.416339 0.016529 -0.014262 -0.000732 0.000008 0.000009 -18.369867 -0.070167 -13.117319 -13.438241 0.106321 -0.178024 -13.341345 0.003830 -0.148073 -0.000299 0.000005 -0.000041 0.000000 0.000000 0.000000 0.000000 0.000000 0.000000 -7.324490 -6.930483 16.261835 -0.221245 -1.129956 11.882766 4.328605 -13.453723 13.639168 -0.897541 -0.005217 -27.597685 0.000000 0.000000 0.000000 0.000000 0.000000 0.000000 0.000000 0.000000 0.000000 11.240030 1.112417 8.910893 0.345549 1.108492 13.658932 -2.912399 -0.388080 16.438795 0.152192 -0.116083 -27.312719 0.000000 0.000000 0.000000 0.000000 0.000000 0.000000 0.000000 0.000000 0.000000 
-0.250913 86.343094 5.217155 -0.902175 0.295673 -11.128186 2.209325 -1.035798 7.035655 -4.499483 0.590885 -0.665281 9.838646 -6.091431 12.283809 -1.360604 -0.368178 -1.329917 9.535254 -1.524028 10.276365 -1.671445 -0.247743 -6.140865 1.109293 2.469478 -23.177986 0.000000 0.000000 0.000000 97.404022 -0.705309 2.972174 58.680912 -26.920370 -0.752434 1.862322 20.738327 34.494320 1.610666 14.664977 -11.108273 10.064789 -1.772402 40.142094 0.000008 0.000049 -24.735729 0.000009 0.000033 -17.217857 0.000008 0.000007 -0.000034 15.146073 0.124862 -8.558836 10.513829 -0.067602 0.084578 10.514097 -0.041556 0.050619 0.000002 0.000010 -0.000022 15.963481 0.028702 -10.187107 10.773230 -0.021947 -0.011050 10.835896 0.004327 -0.012606 0.000024 0.000023 -0.000002 17.941317 -0.078932 -10.617319 11.983654 0.024239 0.050122 11.925689 -0.011747 0.043129 0.000011 -0.000555 0.000003 19.062346 -0.100102 -12.993879 12.558615 0.071310 0.312210 12.398910 0.002226 0.202491 -0.000457 -0.000007 0.000002 0.000000 0.000000 0.000000 0.000000 0.000000 0.000000 -94.778076 0.949785 1.957590 -66.408684 34.995136 -10.099756 -2.976580 -10.613915 45.907997 -2.264737 -26.585335 -18.383610 -8.828977 1.626718 40.737904 -0.000000 0.000033 -21.719757 0.000047 -0.000030 -14.965342 0.000077 0.000004 0.001369 -14.425212 0.149656 -17.101425 -10.495409 -0.073444 -0.239651 -10.617254 -0.043631 -0.188656 0.000006 -0.000367 -0.000005 -15.065454 0.045828 -16.816322 -11.112364 -0.041233 -0.050234 -10.897017 -0.012770 -0.033689 -0.000110 -0.000069 0.000044 -17.311348 0.005380 -14.711270 -12.585704 0.072080 -0.026300 -12.534770 0.014829 -0.013147 -0.000701 0.000009 0.000009 -18.570663 -0.034897 -13.081741 -13.489547 0.090603 -0.174552 -13.385512 -0.003315 -0.147824 -0.000305 0.000005 -0.000041 0.000000 0.000000 0.000000 0.000000 0.000000 0.000000 -7.575895 -7.028035 16.739883 -0.223928 -1.158768 11.834544 4.424280 -13.732904 13.485910 -0.903449 -0.002302 -27.511629 0.000000 0.000000 0.000000 0.000000 0.000000 0.000000 0.000000 0.000000 0.000000 10.919854 1.055778 9.484502 0.335310 1.103780 13.234414 -2.711373 -0.474343 16.439419 0.167006 -0.135368 -27.226002 0.000000 0.000000 0.000000 0.000000 0.000000 0.000000 0.000000 0.000000 0.000000 
